<?xml version="1.0" encoding="UTF-8"?>
<svg xmlns="http://www.w3.org/2000/svg" viewBox="0 0 1200 900" width="1200" height="900" role="img" aria-label="Female body map silhouette front and back">
  <defs>
    <radialGradient id="paper" cx="50%" cy="45%" r="70%">
      <stop offset="0" stop-color="#f8f4ed"/>
      <stop offset="1" stop-color="#ebe4d8"/>
    </radialGradient>
    <linearGradient id="fill" x1="0" x2="0" y1="0" y2="1">
      <stop offset="0" stop-color="#f4efe7" stop-opacity=".90"/>
      <stop offset=".58" stop-color="#d8d0c7" stop-opacity=".42"/>
      <stop offset="1" stop-color="#7a3141" stop-opacity=".12"/>
    </linearGradient>
    <filter id="softShadow" x="-20%" y="-20%" width="140%" height="140%">
      <feDropShadow dx="0" dy="26" stdDeviation="24" flood-color="#111217" flood-opacity=".24"/>
    </filter>
    <filter id="paperNoise">
      <feTurbulence type="fractalNoise" baseFrequency="0.9" numOctaves="2" seed="9"/>
      <feColorMatrix type="saturate" values="0"/>
      <feComponentTransfer><feFuncA type="linear" slope=".035"/></feComponentTransfer>
      <feBlend in="SourceGraphic" mode="multiply"/>
    </filter>
    <style>
      .canvas{fill:url(#paper)}
      .figure-fill{fill:url(#fill)}
      .outline{fill:none;stroke:#5b5a61;stroke-width:3.2;stroke-linecap:round;stroke-linejoin:round;opacity:.72;vector-effect:non-scaling-stroke}
      .detail{fill:none;stroke:#9a8460;stroke-width:1.7;stroke-linecap:round;stroke-linejoin:round;opacity:.32;vector-effect:non-scaling-stroke}
      .quiet{opacity:.26}
    </style>
  </defs>
  <rect class="canvas" x="42" y="42" width="1116" height="816" rx="18" filter="url(#paperNoise)"/>
  <g filter="url(#softShadow)">
    <g transform="translate(190 74)">
      <path class="figure-fill" d="M230 28c34 0 58 27 58 64 0 38-24 66-58 66s-58-28-58-66c0-37 24-64 58-64Zm-35 143c-38 7-66 31-85 73-17 39-29 96-40 172-9 64-20 121-34 176-6 25 7 47 29 50 21 3 37-10 45-35 15-52 24-111 32-174 5-42 13-76 25-101 10 59 8 120 1 181-8 74-20 144-27 209-3 31 16 56 43 57 25 1 45-19 50-50 8-58 13-123 18-184 2-24 4-48 5-70h16c1 22 3 46 5 70 5 61 10 126 18 184 5 31 25 51 50 50 27-1 46-26 43-57-7-65-19-135-27-209-7-61-9-122 1-181 12 25 20 59 25 101 8 63 17 122 32 174 8 25 24 38 45 35 22-3 35-25 29-50-14-55-25-112-34-176-11-76-23-133-40-172-19-42-47-66-85-73-17-3-31 7-42 28-13 24-45 24-58 0-11-21-25-31-42-28Z"/>
      <path class="outline" d="M230 25c36 0 61 28 61 67 0 40-25 69-61 69s-61-29-61-69c0-39 25-67 61-67Zm-39 145c-36 7-63 30-82 70-19 42-31 100-42 176-9 62-20 121-34 177m390-177c-11-76-23-134-42-176-19-40-46-63-82-70m-107 162c11 64 9 128 2 188-8 72-20 142-27 203m126 0c-7-61-19-131-27-203-7-60-9-124 2-188m-93-134c13 20 32 31 55 31s42-11 55-31m-94 120c13 10 29 15 46 15s33-5 46-15m-76 101h60m-53 0c-2 78-8 170-20 250m86-250c2 78 8 172 20 250m-144-27c-31 4-57-16-56-47m206 47c31 4 57-16 56-47"/>
      <path class="detail" d="M192 260c10 16 23 24 38 24s28-8 38-24M212 378c5 34 4 67-2 100m40-100c-5 34-4 67 2 100"/>
    </g>
    <g transform="translate(640 74)">
      <path class="figure-fill" d="M230 28c34 0 58 27 58 64 0 38-24 66-58 66s-58-28-58-66c0-37 24-64 58-64Zm-42 144c-39 9-68 35-87 78-18 42-30 98-40 166-9 64-20 121-34 176-6 25 7 47 29 50 21 3 37-10 45-35 15-52 24-111 32-174 5-40 13-72 24-97 13 55 12 111 6 168-8 76-22 148-31 218-4 31 15 56 42 57 25 1 45-19 51-50 9-58 15-123 20-184 2-24 4-48 5-70h8c1 22 3 46 5 70 5 61 11 126 20 184 6 31 26 51 51 50 27-1 46-26 42-57-9-70-23-142-31-218-6-57-7-113 6-168 11 25 19 57 24 97 8 63 17 122 32 174 8 25 24 38 45 35 22-3 35-25 29-50-14-55-25-112-34-176-10-68-22-124-40-166-19-43-48-69-87-78-23-5-40 9-58 36-18-27-35-41-58-36Z"/>
      <path class="outline" d="M230 25c36 0 61 28 61 67 0 40-25 69-61 69s-61-29-61-69c0-39 25-67 61-67Zm-45 146c-39 10-68 36-87 80-18 42-30 98-40 165-9 62-20 121-34 177m390-177c-10-67-22-123-40-165-19-44-48-70-87-80m-112 163c13 59 12 117 6 174-8 75-22 147-31 215m160 0c-9-68-23-140-31-215-6-57-7-115 6-174m-107-136c18 24 36 36 56 36s38-12 56-36m-102 74c22 17 58 17 80 0m-91 115c22 12 58 12 80 0m-75 88h64m-58 0c-2 78-8 170-22 250m94-250c2 78 8 172 22 250"/>
      <path class="detail" d="M180 224c17 25 34 37 50 37s33-12 50-37M172 304c22 19 94 19 116 0M190 422c19 16 61 16 80 0"/>
    </g>
  </g>
</svg>